<svg width="138" height="93" viewBox="0 0 138 93" fill="none" xmlns="http://www.w3.org/2000/svg">
<path d="M0.900432 49.12V37.856C0.900432 25.9947 4.0151 16.736 10.2444 10.08C16.4738 3.42399 25.0924 0.095993 36.1004 0.095993C47.1084 0.095993 55.9404 3.42399 62.5964 10.08C67.2898 14.7733 69.6364 21.8133 69.6364 31.2H52.9964C52.9964 21.0453 47.5778 15.968 36.7404 15.968C33.4978 15.968 30.7244 16.608 28.4204 17.888C26.2018 19.0827 24.5378 20.4907 23.4284 22.112C22.3191 23.7333 21.4658 26.1227 20.8684 29.28C20.2711 32.4373 19.9298 35.0827 19.8444 37.216C19.7591 39.3493 19.7164 42.208 19.7164 45.792C19.7164 49.376 19.7164 51.808 19.7164 53.088C19.8018 54.2827 19.9298 56.288 20.1004 59.104C20.3564 61.8347 20.6978 63.7973 21.1244 64.992C21.6364 66.1867 22.3191 67.7227 23.1724 69.6C24.1111 71.4773 25.2631 72.8 26.6284 73.568C30.1271 75.7867 34.0951 76.896 38.5324 76.896C45.9564 76.896 51.2044 73.7387 54.2764 67.424V61.28H43.2684V46.432H69.5084V73.952C66.8631 80.1813 62.6818 84.8747 56.9644 88.032C51.2471 91.1893 44.7618 92.768 37.5084 92.768C24.6231 92.768 15.2791 89.184 9.47643 82.016C3.7591 74.7627 0.900432 63.7973 0.900432 49.12Z" fill="#4787C4"/>
<path d="M137.824 92H110.688C100.448 92 93.0244 90.0373 88.4164 86.112C83.8938 82.1013 81.6324 75.616 81.6324 66.656V0.863998H99.4244V66.656C99.4244 70.24 100.235 72.7147 101.856 74.08C103.478 75.4453 106.422 76.128 110.688 76.128H137.824V92Z" fill="white"/>
</svg>
