<svg width="44" height="45" viewBox="0 0 44 45" fill="none" xmlns="http://www.w3.org/2000/svg">
<path fill-rule="evenodd" clip-rule="evenodd" d="M43.0281 22.8787C43.0281 21.3348 42.8895 19.8503 42.6322 18.4252H22.1263V26.8473H33.844C33.3392 29.5688 31.8053 31.8748 29.4993 33.4187V38.8816H36.5359C40.6529 35.0912 43.0281 29.5095 43.0281 22.8787Z" fill="#4285F4"/>
<path fill-rule="evenodd" clip-rule="evenodd" d="M22.1263 44.1566C28.0049 44.1566 32.9335 42.207 36.5359 38.8817L29.4993 33.4187C27.5497 34.725 25.0557 35.497 22.1263 35.497C16.4555 35.497 11.6556 31.667 9.94344 26.5207H2.66937V32.1618C6.25198 39.2775 13.6151 44.1566 22.1263 44.1566Z" fill="#34A853"/>
<path fill-rule="evenodd" clip-rule="evenodd" d="M9.94344 26.5206C9.50799 25.2143 9.26057 23.8189 9.26057 22.3838C9.26057 20.9488 9.50799 19.5534 9.94344 18.247V12.6059H2.66937C1.19477 15.5452 0.353546 18.8705 0.353546 22.3838C0.353546 25.8972 1.19477 29.2224 2.66937 32.1618L9.94344 26.5206Z" fill="#FBBC05"/>
<path fill-rule="evenodd" clip-rule="evenodd" d="M22.1263 9.27069C25.3229 9.27069 28.1929 10.3692 30.4494 12.5267L36.6942 6.28189C32.9236 2.76856 27.995 0.611084 22.1263 0.611084C13.6151 0.611084 6.25198 5.49015 2.66937 12.6059L9.94344 18.247C11.6556 13.1007 16.4555 9.27069 22.1263 9.27069Z" fill="#EA4335"/>
</svg>
