<svg width="165" height="121" viewBox="0 0 165 121" fill="none" xmlns="http://www.w3.org/2000/svg">
<path d="M14.9004 51.12V39.856C14.9004 27.9947 18.0151 18.736 24.2444 12.08C30.4738 5.42399 39.0924 2.09599 50.1004 2.09599C61.1084 2.09599 69.9404 5.42399 76.5964 12.08C81.2898 16.7733 83.6364 23.8133 83.6364 33.2H66.9964C66.9964 23.0453 61.5778 17.968 50.7404 17.968C47.4978 17.968 44.7244 18.608 42.4204 19.888C40.2018 21.0827 38.5378 22.4907 37.4284 24.112C36.3191 25.7333 35.4658 28.1227 34.8684 31.28C34.2711 34.4373 33.9298 37.0827 33.8444 39.216C33.7591 41.3493 33.7164 44.208 33.7164 47.792C33.7164 51.376 33.7164 53.808 33.7164 55.088C33.8018 56.2827 33.9298 58.288 34.1004 61.104C34.3564 63.8347 34.6978 65.7973 35.1244 66.992C35.6364 68.1867 36.3191 69.7227 37.1724 71.6C38.1111 73.4773 39.2631 74.8 40.6284 75.568C44.1271 77.7867 48.0951 78.896 52.5324 78.896C59.9564 78.896 65.2044 75.7387 68.2764 69.424V63.28H57.2684V48.432H83.5084V75.952C80.8631 82.1813 76.6818 86.8747 70.9644 90.032C65.2471 93.1893 58.7618 94.768 51.5084 94.768C38.6231 94.768 29.2791 91.184 23.4764 84.016C17.7591 76.7627 14.9004 65.7973 14.9004 51.12Z" fill="#4787C4"/>
<path d="M151.824 94H124.688C114.448 94 107.024 92.0373 102.416 88.112C97.8938 84.1013 95.6324 77.616 95.6324 68.656V2.864H113.424V68.656C113.424 72.24 114.235 74.7147 115.856 76.08C117.478 77.4453 120.422 78.128 124.688 78.128H151.824V94Z" fill="white"/>
<path d="M26.954 109.59V107.478C26.954 105.254 27.538 103.518 28.706 102.27C29.874 101.022 31.49 100.398 33.554 100.398C35.618 100.398 37.274 101.022 38.522 102.27C39.402 103.15 39.842 104.47 39.842 106.23H36.722C36.722 104.326 35.706 103.374 33.674 103.374C33.066 103.374 32.546 103.494 32.114 103.734C31.698 103.958 31.386 104.222 31.178 104.526C30.97 104.83 30.81 105.278 30.698 105.87C30.586 106.462 30.522 106.958 30.506 107.358C30.49 107.758 30.482 108.294 30.482 108.966C30.482 109.638 30.482 110.094 30.482 110.334C30.498 110.558 30.522 110.934 30.554 111.462C30.602 111.974 30.666 112.342 30.746 112.566C30.842 112.79 30.97 113.078 31.13 113.43C31.306 113.782 31.522 114.03 31.778 114.174C32.434 114.59 33.178 114.798 34.01 114.798C35.402 114.798 36.386 114.206 36.962 113.022V111.87H34.898V109.086H39.818V114.246C39.322 115.414 38.538 116.294 37.466 116.886C36.394 117.478 35.178 117.774 33.818 117.774C31.402 117.774 29.65 117.102 28.562 115.758C27.49 114.398 26.954 112.342 26.954 109.59ZM54.8832 117.63H52.7952L51.8352 115.974L48.4992 117.774C46.6432 117.774 45.3952 117.102 44.7552 115.758C44.4352 115.102 44.2112 114.398 44.0832 113.646C43.9712 112.878 43.9152 112.086 43.9152 111.27C43.9152 110.438 43.9232 109.83 43.9392 109.446C43.9552 109.046 43.9952 108.59 44.0592 108.078C44.1232 107.55 44.2112 107.11 44.3232 106.758C44.4512 106.406 44.6272 106.046 44.8512 105.678C45.0752 105.294 45.3472 104.99 45.6672 104.766C46.3872 104.27 47.3232 104.022 48.4752 104.022H51.7632L54.8832 103.83V117.63ZM51.7632 113.262V106.83H49.3872C48.5072 106.83 47.8912 107.166 47.5392 107.838C47.2032 108.51 47.0352 109.518 47.0352 110.862C47.0352 112.19 47.1952 113.126 47.5152 113.67C47.8512 114.214 48.4752 114.486 49.3872 114.486L51.7632 113.262ZM78.3355 117.63H75.2155V109.11C75.2155 108.262 75.1115 107.67 74.9035 107.334C74.7115 106.998 74.3675 106.83 73.8715 106.83L71.0635 108.006V117.63H67.9435V109.11C67.9435 107.59 67.4155 106.83 66.3595 106.83L63.7915 108.006V117.63H60.6715V103.926H62.9995L63.7195 105.558L67.3195 103.782C68.5675 103.782 69.5115 104.39 70.1515 105.606L74.6155 103.782C75.8635 103.782 76.7915 104.206 77.3995 105.054C78.0235 105.886 78.3355 107.014 78.3355 108.438V117.63ZM94.367 111.51H86.375C86.375 112.758 86.567 113.67 86.951 114.246C87.351 114.822 88.143 115.11 89.327 115.11C90.095 115.11 90.663 114.87 91.031 114.39C91.399 113.894 91.583 113.422 91.583 112.974H94.391C94.391 114.686 93.927 115.942 92.999 116.742C92.087 117.542 90.871 117.942 89.351 117.942C87.847 117.942 86.679 117.726 85.847 117.294C84.135 116.414 83.279 114.078 83.279 110.286C83.279 108.03 83.767 106.382 84.743 105.342C85.719 104.286 87.207 103.758 89.207 103.758C92.679 103.758 94.415 105.686 94.415 109.542C94.415 109.958 94.399 110.614 94.367 111.51ZM86.447 109.374H91.583C91.583 108.318 91.383 107.55 90.983 107.07C90.583 106.59 89.967 106.35 89.135 106.35C88.319 106.35 87.663 106.598 87.167 107.094C86.687 107.574 86.447 108.334 86.447 109.374Z" fill="#4787C4"/>
<path d="M102.643 117.63L99.5234 117.654V99.582H102.643V117.63ZM109.979 98.694C110.731 98.694 111.219 98.814 111.443 99.054C111.667 99.278 111.779 99.766 111.779 100.518C111.779 101.254 111.659 101.742 111.419 101.982C111.195 102.206 110.707 102.318 109.955 102.318C109.219 102.318 108.731 102.198 108.491 101.958C108.267 101.718 108.155 101.23 108.155 100.494C108.155 99.758 108.267 99.278 108.491 99.054C108.731 98.814 109.227 98.694 109.979 98.694ZM111.515 117.63H108.395V104.43H111.515V117.63ZM126.812 113.838V114.198C126.716 115.398 126.204 116.302 125.276 116.91C124.364 117.518 123.22 117.822 121.844 117.822C119.812 117.822 118.388 117.454 117.572 116.718C116.82 116.046 116.444 115.054 116.444 113.742V113.454H119.276C119.276 114.19 119.468 114.694 119.852 114.966C120.236 115.238 120.9 115.374 121.844 115.374C123.124 115.374 123.764 114.91 123.764 113.982C123.764 113.214 123.54 112.702 123.092 112.446C122.884 112.318 122.62 112.222 122.3 112.158L119.876 111.75C117.764 111.414 116.708 110.094 116.708 107.79C116.708 106.51 117.172 105.518 118.1 104.814C119.044 104.094 120.236 103.734 121.676 103.734C124.956 103.734 126.596 105.15 126.596 107.982V108.294H123.884C123.852 107.542 123.652 107.03 123.284 106.758C122.916 106.486 122.396 106.35 121.724 106.35C121.068 106.35 120.572 106.486 120.236 106.758C119.9 107.014 119.732 107.302 119.732 107.622C119.732 108.534 120.1 109.054 120.836 109.182L123.74 109.71C125.788 110.094 126.812 111.47 126.812 113.838ZM137.684 117.63H135.74C134.556 117.63 133.652 117.278 133.028 116.574C132.42 115.87 132.116 115.03 132.116 114.054V106.854H130.796V104.478H132.116V101.79H135.236V104.478H137.444V106.854H135.236V113.862C135.236 114.614 135.596 114.99 136.316 114.99H137.684V117.63Z" fill="white"/>
</svg>
